<svg width="40" height="21" viewBox="0 0 40 21" fill="none" xmlns="http://www.w3.org/2000/svg">
<path d="M14.0625 4.6875C14.0625 7.27734 11.9648 9.375 9.375 9.375C6.78516 9.375 4.6875 7.27734 4.6875 4.6875C4.6875 2.09766 6.78516 0 9.375 0C11.9648 0 14.0625 2.09766 14.0625 4.6875Z" fill="#BE902E"/>
<path d="M0 16.25C0 12.925 6.24609 11.25 9.375 11.25C12.5039 11.25 18.75 12.925 18.75 16.25V20.625H0V16.25Z" fill="#BE902E"/>
<path d="M34.6875 4.6875C34.6875 7.27734 32.5898 9.375 30 9.375C27.4102 9.375 25.3125 7.27734 25.3125 4.6875C25.3125 2.09766 27.4102 0 30 0C32.5898 0 34.6875 2.09766 34.6875 4.6875Z" fill="#BE902E"/>
<path d="M23.4375 3.75C23.4375 5.82187 21.7594 7.5 19.6875 7.5C17.6156 7.5 15.9375 5.82187 15.9375 3.75C15.9375 1.67812 17.6156 0 19.6875 0C21.7594 0 23.4375 1.67812 23.4375 3.75Z" fill="#BE902E"/>
<path d="M20.625 16.25C20.625 12.925 26.8711 11.25 30 11.25C33.1289 11.25 39.375 12.925 39.375 16.25V20.625H20.625V16.25Z" fill="#BE902E"/>
<path fill-rule="evenodd" clip-rule="evenodd" d="M24.1415 10.4859C23.8913 10.5779 23.6444 10.6756 23.4025 10.7789C22.3045 11.2481 21.1959 11.882 20.3345 12.7298C20.1039 12.957 19.885 13.206 19.6876 13.4766C19.4903 13.206 19.2714 12.957 19.0406 12.7298C18.1794 11.882 17.0706 11.2481 15.9727 10.7789C15.7308 10.6756 15.484 10.5779 15.2336 10.4859C16.6611 9.74634 18.4968 9.375 19.6876 9.375C20.8783 9.375 22.714 9.74634 24.1415 10.4859Z" fill="#BE902E"/>
</svg>
