<svg width="45" height="30" viewBox="0 0 45 30" fill="none" xmlns="http://www.w3.org/2000/svg">
<path d="M16.9068 18.2822C17.2644 18.6103 17.4594 19.0495 17.4896 19.5017C17.5199 19.9596 17.3778 20.4306 17.0611 20.8101C17.3664 20.5669 17.737 20.4412 18.1125 20.4306C18.5622 20.4175 19.0201 20.5702 19.3785 20.882C19.3834 20.886 19.3997 20.9016 19.4258 20.926L19.1246 21.2493L19.4275 20.9252C19.4405 20.9375 19.4519 20.9505 19.4634 20.9636C19.8046 21.3007 19.9793 21.7374 19.9939 22.1831C20.0078 22.5871 19.8895 22.9969 19.6438 23.3438C19.8576 23.2328 20.0927 23.1708 20.3302 23.1593C20.7474 23.1381 21.1767 23.2712 21.5171 23.5552C21.5342 23.5691 21.5497 23.583 21.5636 23.5952C21.9113 23.9062 22.095 24.3242 22.1187 24.7535C22.1423 25.1845 22.0044 25.6277 21.7065 25.9844L20.9057 26.9452C21.0608 27.039 21.2175 27.1354 21.3751 27.2325C23.0068 28.2381 24.8336 29.3638 26.2 27.7312L22.9088 25.2514L23.7088 24.1911L27.2473 26.8578L27.5648 26.7836L27.6276 26.7729C28.0758 26.7125 28.4186 26.5428 28.6659 26.2734C28.8675 26.053 29.0194 25.7567 29.1247 25.3902L24.6507 22.3741L25.3943 21.2721L30.0699 24.4245C30.6209 24.2825 31.0527 24.0784 31.3653 23.8123C31.5988 23.614 31.7694 23.374 31.8779 23.0916L26.2563 19.0698L27.0252 17.9891L32.8885 22.1839C33.2558 22.1774 33.5709 22.068 33.8231 21.8917C34.0484 21.7341 34.2312 21.5203 34.3634 21.2746C34.4981 21.0248 34.5789 20.7448 34.5985 20.4599C34.6255 20.0665 34.5365 19.669 34.3112 19.336C34.2304 19.3066 34.1545 19.2609 34.0892 19.2005C32.1914 17.6283 30.3336 16.2154 28.3949 14.9918C26.4865 13.7886 24.4891 12.7601 22.2803 11.9324C21.9358 11.9439 21.6379 11.9414 21.38 11.939C20.5286 11.9308 20.3302 11.9292 19.6968 13.1707C19.225 14.0939 18.6071 14.7853 17.8178 15.1648C17.0693 15.5248 16.1983 15.5926 15.1902 15.2995C13.6981 14.8661 13.3487 14.5094 13.6116 13.6058C13.6834 13.3576 13.8189 13.1152 13.9968 12.7969C14.0434 12.7136 14.0932 12.623 14.2164 12.392C14.9894 10.9366 15.6645 9.76443 16.3248 8.82573C15.6359 8.74655 15.0817 8.63473 14.538 8.46902C13.9364 8.28618 13.3798 8.04783 12.6916 7.72051L7.95649 16.2448L9.82655 18.1793L10.5383 17.3581C10.8632 16.9843 11.3072 16.7672 11.766 16.7239C12.2239 16.6806 12.6957 16.8088 13.0769 17.1247C13.0843 17.1304 13.0802 17.128 13.1079 17.1524C13.4712 17.4675 13.6826 17.9026 13.7267 18.3515C13.7577 18.6642 13.7079 18.9841 13.5724 19.2747L14.2956 18.4274L14.2948 18.4266C14.2989 18.4217 14.3038 18.4168 14.3078 18.4119V18.4111C14.3176 18.3997 14.3282 18.3891 14.3397 18.3785C14.6645 18.025 15.1021 17.8324 15.5502 17.8038C16.0097 17.7744 16.4824 17.9173 16.857 18.2373L16.8578 18.2364C16.8636 18.2413 16.8685 18.2462 16.8734 18.2503C16.8856 18.2601 16.8962 18.2707 16.9068 18.2822ZM20.047 27.9753L19.2193 28.9679C19.2063 28.9834 19.194 28.9981 19.1818 29.0112C18.8797 29.3491 18.4651 29.5279 18.0406 29.5491C17.6243 29.5695 17.195 29.4373 16.8538 29.1524C16.8375 29.1385 16.822 29.1254 16.8081 29.1132C16.4603 28.8014 16.2759 28.3843 16.2522 27.9541C16.2342 27.6276 16.3093 27.2937 16.4775 26.9958L16.3893 27.0962C16.3787 27.1093 16.3869 27.0978 16.3469 27.1411C16.0147 27.4954 15.5674 27.6774 15.1127 27.6896C14.6629 27.7027 14.2042 27.5501 13.8459 27.2382C13.8369 27.2301 13.8279 27.2219 13.8189 27.2129C13.8108 27.2056 13.8042 27.1991 13.7977 27.1933L13.7969 27.1942C13.7846 27.1827 13.7724 27.1697 13.7618 27.1566C13.4206 26.8195 13.2451 26.3828 13.2304 25.9371C13.2206 25.6294 13.2867 25.3176 13.4279 25.0335C13.1243 25.2939 12.7504 25.4376 12.3684 25.462C11.9097 25.4914 11.4371 25.3478 11.0616 25.0278L11.0608 25.0286C11.0559 25.0245 11.0501 25.0196 11.0453 25.0147C11.0338 25.0049 11.0224 24.9943 11.0118 24.9837C10.6551 24.6556 10.4592 24.2156 10.4298 23.7642C10.3988 23.2998 10.5441 22.8222 10.8706 22.4402L11.1228 22.1439C10.8404 22.3635 10.5057 22.4925 10.1637 22.5251C9.70576 22.5684 9.23397 22.4394 8.85277 22.1243H8.85196C8.84216 22.1162 8.83236 22.1072 8.82257 22.0982L8.82094 22.0966C8.45852 21.7815 8.2471 21.3464 8.20302 20.8975C8.15813 20.4445 8.28302 19.9768 8.59238 19.6021C8.60055 19.5915 8.60952 19.5817 8.6185 19.5727L8.61932 19.5719L8.95399 19.1858L6.94761 17.1092L6.13134 18.5116L6.12889 18.5165L6.11747 18.5352L6.11257 18.5409C5.84238 18.985 5.4163 19.2764 4.94612 19.3899C4.48004 19.5025 3.96905 19.4421 3.52827 19.185L3.52338 19.1801L3.50379 19.1687L3.49807 19.1654L0.91623 17.5998C0.465652 17.3263 0.171797 16.8978 0.0558864 16.4244C-0.0600234 15.9526 0.00201298 15.4351 0.264034 14.9853L8.44625 0.932503L8.4487 0.926789L8.46013 0.908015L8.46503 0.903117C8.7344 0.458253 9.1613 0.167661 9.63147 0.0542038C10.0976 -0.0584406 10.6077 0.00196285 11.0493 0.259086L11.0542 0.261534L11.0738 0.272962L11.0787 0.27786L13.6614 1.84427C14.1111 2.1169 14.4058 2.54544 14.5217 3.01887C14.6368 3.49149 14.5748 4.00818 14.3127 4.45876L13.1455 6.46432C13.8467 6.80062 14.3862 7.03815 14.9225 7.20141C15.5673 7.39813 16.2603 7.50751 17.2962 7.58097L17.2937 7.60709C19.7678 4.92159 22.5946 5.13136 30.0462 5.68479L30.4029 5.71173L29.9181 4.87832C29.6561 4.42856 29.594 3.91105 29.7091 3.43925C29.825 2.96581 30.1197 2.53728 30.5695 2.26383L33.1521 0.698233L33.157 0.692519L33.1766 0.681092L33.1815 0.678643C33.6231 0.42152 34.1333 0.361117 34.5994 0.473761C35.0695 0.587222 35.4964 0.878628 35.7658 1.32267L35.7707 1.32839L35.7821 1.34716L35.7846 1.35206L43.9668 15.4049C44.2288 15.8554 44.2908 16.3721 44.1749 16.8439C44.059 17.3182 43.7652 17.7459 43.3146 18.0194L40.7328 19.5858L40.727 19.5882L40.7075 19.5996L40.7026 19.6045C40.2618 19.8617 39.7508 19.9221 39.2847 19.8094C38.8145 19.696 38.3884 19.4054 38.1183 18.9605L38.1134 18.9556L38.1019 18.9368L38.0995 18.9311L37.2587 17.4871L35.5323 18.7932C35.8425 19.3384 35.965 19.9514 35.9233 20.549C35.8915 21.0216 35.7568 21.4877 35.5323 21.9031C35.3054 22.3235 34.9846 22.6957 34.5822 22.9773C34.1741 23.2622 33.6892 23.4508 33.1407 23.4997C32.9562 24.0164 32.6501 24.4564 32.2232 24.8205C31.7563 25.218 31.1531 25.5135 30.4127 25.7061C30.2511 26.2906 29.9964 26.7803 29.6422 27.1672C29.19 27.6611 28.5965 27.9712 27.8497 28.0814L27.5387 28.1541C25.476 31.3155 22.9349 29.7499 20.6788 28.3598C20.4641 28.2275 20.2519 28.097 20.047 27.9753ZM4.98611 17.8414L13.1643 3.79349C13.2491 3.64738 13.2696 3.48168 13.2328 3.33067C13.1977 3.18783 13.1096 3.05804 12.9757 2.97723L10.3987 1.41408L10.3979 1.41572L10.3783 1.40429H10.3792C10.242 1.32674 10.0853 1.30797 9.94246 1.34307C9.80369 1.37654 9.6788 1.45898 9.60126 1.58305L9.60289 1.58387L9.59146 1.60264L1.41249 15.6497C1.3276 15.7958 1.30719 15.9623 1.34392 16.1125C1.37902 16.2562 1.46718 16.3852 1.60186 16.4668L4.18452 18.0332H4.1837L4.19268 18.0381L4.1935 18.0365C4.33063 18.1173 4.4898 18.136 4.63428 18.1009C4.77305 18.0675 4.89794 17.985 4.97548 17.861L4.97466 17.8601L4.98528 17.8414L4.98611 17.8414ZM32.1105 6.00721C32.1612 6.05945 32.202 6.11985 32.233 6.18597L32.8844 7.33527L39.2447 18.2609H39.2455L39.2561 18.2797L39.2553 18.2805C39.3329 18.4046 39.4577 18.487 39.5965 18.5205C39.741 18.5556 39.9002 18.5368 40.0373 18.4568L40.0381 18.4585L40.0471 18.4528H40.0463L42.6289 16.8863C42.7636 16.8055 42.8518 16.6757 42.8869 16.5329C42.9236 16.3819 42.9032 16.2154 42.8183 16.0701L34.6393 2.02219L34.6279 2.00342L34.6295 2.0026C34.552 1.87853 34.4271 1.79608 34.2883 1.76262C34.1455 1.72834 33.9888 1.74629 33.8516 1.82384H33.8524L33.8329 1.83608L33.832 1.83445L31.2551 3.39678C31.1212 3.47841 31.0331 3.60738 30.998 3.75104C30.9612 3.90123 30.9816 4.06775 31.0665 4.21386L32.1105 6.00721Z" fill="#BE902E"/>
</svg>
